<?xml version="1.0" encoding="utf-8"?>
<!-- Generator: Adobe Illustrator 18.0.0, SVG Export Plug-In . SVG Version: 6.00 Build 0)  -->
<!DOCTYPE svg PUBLIC "-//W3C//DTD SVG 1.1//EN" "http://www.w3.org/Graphics/SVG/1.1/DTD/svg11.dtd">
<svg version="1.1" id="Layer_1" xmlns="http://www.w3.org/2000/svg" xmlns:xlink="http://www.w3.org/1999/xlink" x="0px" y="0px"
	 viewBox="0 0 800 800" enable-background="new 0 0 800 800" xml:space="preserve">
<g>
	<path fill="#F37D20" d="M516.9,262.3c-0.2-0.7-0.5-1.4-0.7-2.1c-5.1-13-10.3-25.9-15.4-38.9c-0.1-0.2-0.2-0.4-0.3-0.7
		c-0.2,0.3-0.4,0.5-0.5,0.7c-8,11.9-16.1,23.7-24.1,35.6c-0.4,0.6-0.8,0.8-1.5,0.8c-5.1,0-10.2,0-15.2,0c-0.3,0-0.5,0-0.9,0
		c0.4-0.6,0.7-1.1,1-1.6c8.8-13.6,17.5-27.2,26.3-40.7c2.5-3.9,5-7.7,7.5-11.6c0.2-0.4,0.3-0.7,0.1-1.1c-1.5-4.5-2.9-8.9-4.3-13.4
		c-0.2-0.5-0.4-0.7-0.9-0.7c-3.4,0-6.7,0-10.1,0c-0.5,0-0.7-0.2-0.7-0.7c0-4.1,0-8.2,0-12.4c0-0.3,0-0.6,0-0.9c7.2,0,14.5,0,21.7,0
		c1.9,4.7,3.7,9.4,5.6,14.1c7.4,18.6,14.8,37.1,22.1,55.7c0.2,0.6,0.4,0.7,1,0.5c3-1,6.1-1.9,9.2-2.9c0.7-0.2,1.3-0.4,2-0.6
		c0.1,0.1,0.1,0.2,0.1,0.2c1.3,3.9,2.5,7.9,3.8,11.8c0.2,0.5,0,0.7-0.4,0.8c-8.1,2.6-16.2,5.1-24.3,7.7c-0.3,0.1-0.6,0.3-0.9,0.4
		C516.9,262.3,516.9,262.3,516.9,262.3z"/>
</g>
<image overflow="visible" width="900" height="900" xlink:href="../../../Desktop/aws-api-gateway-icon.png"  transform="matrix(0.1482 0 0 0.1482 613.9535 333.1903)">
</image>
<text transform="matrix(1 0 0 1 450.2791 286.783)" font-family="'MyriadPro-Regular'" font-size="15.4535">projects service</text>
<text transform="matrix(1 0 0 1 654.4399 482.7133)" font-family="'MyriadPro-Regular'" font-size="15.4535">api gateway</text>
<line fill="none" stroke="#000000" stroke-width="4" stroke-miterlimit="10" x1="567.4" y1="287.2" x2="620.3" y2="340.1"/>
</svg>
