<?xml version="1.0" encoding="utf-8"?>
<!-- Generator: Adobe Illustrator 18.0.0, SVG Export Plug-In . SVG Version: 6.00 Build 0)  -->
<!DOCTYPE svg PUBLIC "-//W3C//DTD SVG 1.1//EN" "http://www.w3.org/Graphics/SVG/1.1/DTD/svg11.dtd">
<svg version="1.1" id="Layer_1" xmlns="http://www.w3.org/2000/svg" xmlns:xlink="http://www.w3.org/1999/xlink" x="0px" y="0px"
	 viewBox="0 0 500 500" enable-background="new 0 0 500 500" xml:space="preserve">
<text transform="matrix(1 0 0 1 142.0604 253.1592)" font-family="'MyriadPro-Regular'" font-size="10.8089">More Projects</text>
<rect x="49.5" y="235.9" fill="#FFFFFF" width="257" height="164.5"/>
<g id="otY2SL.tif">
	<g>
		<path d="M298.9,97.7c55.2,0,110.4,0.1,165.6-0.1c7.5,0,12.7,5.6,12.7,12.5c-0.2,66.1-0.2,132.3,0,198.4c0,7.9-6.4,12.5-12.5,12.5
			c-110.5-0.1-220.9-0.1-331.4-0.1c-8,0-12.6-4.5-12.6-12.5c0-47.5,0-95,0-142.5c0-18.5,0.2-36.9-0.1-55.4c-0.1-7.8,5.4-13,13.1-13
			C188.8,97.8,243.9,97.7,298.9,97.7z M469.5,292.9c0.1-1.1,0.2-2,0.2-2.9c0-57.9,0-115.7,0.1-173.6c0-2.5-0.8-3.1-3.2-3.1
			c-18.3,0.1-36.5,0.1-54.8,0.1c-93.4,0-186.8,0-280.2,0c-1.1,0-2.1,0-3.2,0c0,60.1,0,119.8,0,179.5
			C242.2,292.9,355.7,292.9,469.5,292.9z"/>
		<path d="M358.6,358.1c-42.2,0-83.8,0-125.8,0c0-3.9-0.3-7.9,0.1-11.8c0.2-2.4,1.9-3.9,4.9-3.8c8.7,0.2,17.4,0,26.1,0.1
			c1.6,0,2.4-0.4,2.8-2.2c1-4.7,2.2-9.3,3.3-14c0.3-1.5,0.9-2.1,2.6-2.1c17.4,0.1,34.8,0.1,52.3,0c1.7,0,2.4,0.6,2.7,2.2
			c1,4.6,2.4,9.1,3.4,13.7c0.4,1.9,1.2,2.4,3,2.4c6.3-0.1,12.6,0,18.9,0c3.2,0,4.7,0.9,5.1,4.2C358.4,350.4,358.4,354.1,358.6,358.1
			z"/>
		<path fill="#FFFFFF" d="M469.5,292.9c-113.7,0-227.3,0-341.1,0c0-59.7,0-119.4,0-179.5c1.1,0,2.2,0,3.2,0c93.4,0,186.8,0,280.2,0
			c18.3,0,36.5,0,54.8-0.1c2.4,0,3.2,0.5,3.2,3.1c-0.1,57.9-0.1,115.7-0.1,173.6C469.6,290.9,469.5,291.8,469.5,292.9z"/>
	</g>
</g>
<rect x="141.9" y="261.5" fill="none" stroke="#000000" stroke-miterlimit="10" width="57.7" height="47.6"/>
<rect x="209.8" y="261.5" fill="none" stroke="#000000" stroke-miterlimit="10" width="57.7" height="47.6"/>
<rect x="279.1" y="261.5" fill="none" stroke="#000000" stroke-miterlimit="10" width="57.7" height="47.6"/>
<g>
	<rect x="46" y="235.1" fill="#FFFFFF" width="257.3" height="165.3"/>
	<g id="_x30_L5J4s.tif">
		<g>
			<path d="M175.7,385.6c52.3,0,104.7,0,157,0c0.9,0,1.7,0,2.6,0c1.7,0.1,2.2,0.7,1.9,2.6c-1.5,9.4-9.8,16.3-19.4,16.6
				c-0.9,0-1.9,0.1-2.8,0.1c-93,0-186,0-279,0c-7,0-13.2-1.9-17.5-7.6c-1.9-2.5-3.1-5.6-4.1-8.6c-0.8-2.5-0.1-3.1,2.6-3.1
				c12.2,0,24.5,0,36.7,0C94.4,385.6,135,385.6,175.7,385.6z M156,394.5c0,0.4-0.1,0.7-0.1,1.1c1.3,0.3,2.6,1,4,1
				c8,0.1,16.1,0.1,24.1,0c2.9,0,5.8,0.1,8.7-0.1c0.9-0.1,1.8-1,2.6-1.5c-0.8-0.4-1.7-1.1-2.5-1.1c-11.3-0.1-22.6-0.1-33.8,0
				C158,393.9,157,394.3,156,394.5z M279.9,395.3c0-0.2,0-0.5,0-0.7c-5.2,0-10.3,0-15.5,0c0,0.2,0,0.5,0,0.7
				C269.6,395.3,274.7,395.3,279.9,395.3z M282.7,394.6c0,0.2,0,0.5,0,0.7c1.8,0,3.6,0,5.4,0c0-0.2,0-0.5,0-0.7
				C286.3,394.6,284.5,394.6,282.7,394.6z M290.3,394.6c0,0.2,0,0.5,0,0.7c1.6,0,3.2,0,4.8,0c0-0.2,0-0.5,0-0.7
				C293.5,394.6,291.9,394.6,290.3,394.6z"/>
			<path d="M176,239.8c-40.4,0-80.9,0-121.3,0c-0.9,0-1.7,0-2.6,0c-1.5,0.1-2.3,0.9-2.2,2.5c0,0.8,0,1.6,0,2.4
				c0,44.7,0,89.4,0,134.1c0,1.3-0.5,3.5-1.1,3.6c-2.1,0.3-4.3,0.1-6.5-0.3c-0.3,0-0.6-1.5-0.6-2.3c0-14.4,0-28.9,0-43.3
				c0-30.7,0-61.4,0-92.1c0-4.3,0.7-8.5,4.5-11.1c2.1-1.4,4.8-2,7.3-2.9c0.5-0.2,1.1,0,1.6,0c80.5,0,160.9,0,241.4,0
				c4.5,0,8.3,1.3,10.9,4.9c1.2,1.6,1.7,3.7,2.3,5.6c0.3,1,0.2,2.2,0.2,3.3c0,45.4,0,90.8,0.1,136.2c0,1.9-0.6,2.5-2.5,2.5
				c-6.8,0-5.9,0.5-5.9-5.7c0-44.4,0-88.8,0-133.1c0-4,0-4.1-4.1-4.1C257,239.8,216.5,239.8,176,239.8z M175.8,232.8
				c-0.9,1.1-1.7,1.7-1.7,2.3c0,0.6,0.9,1.7,1.3,1.6c0.7-0.1,1.6-0.8,1.8-1.4C177.4,234.8,176.5,234,175.8,232.8z"/>
			<path fill="#FFFFFF" d="M156,394.5c1-0.2,2-0.6,3-0.6c11.3,0,22.6,0,33.8,0c0.8,0,1.7,0.7,2.5,1.1c-0.9,0.5-1.7,1.4-2.6,1.5
				c-2.9,0.2-5.8,0.1-8.7,0.1c-8,0-16.1,0-24.1,0c-1.3,0-2.6-0.6-4-1C155.9,395.2,155.9,394.9,156,394.5z"/>
			<path fill="#FFFFFF" d="M279.9,395.3c-5.2,0-10.3,0-15.5,0c0-0.2,0-0.5,0-0.7c5.2,0,10.3,0,15.5,0
				C279.9,394.8,279.9,395.1,279.9,395.3z"/>
			<path fill="#FFFFFF" d="M282.7,394.6c1.8,0,3.6,0,5.3,0c0,0.2,0,0.5,0,0.7c-1.8,0-3.6,0-5.4,0
				C282.7,395.1,282.7,394.8,282.7,394.6z"/>
			<path fill="#FFFFFF" d="M290.3,394.6c1.6,0,3.2,0,4.8,0c0,0.2,0,0.5,0,0.7c-1.6,0-3.2,0-4.8,0
				C290.3,395.1,290.3,394.8,290.3,394.6z"/>
			<path fill="#FFFFFF" d="M175.8,232.8c0.8,1.2,1.6,2,1.4,2.4c-0.3,0.6-1.1,1.3-1.8,1.4c-0.4,0.1-1.3-1-1.3-1.6
				C174,234.5,174.9,233.9,175.8,232.8z"/>
		</g>
	</g>
	<rect x="41.7" y="376.9" width="8.2" height="17.6"/>
	<rect x="301.5" y="376.9" width="8.3" height="17.6"/>
</g>
<text transform="matrix(1 0 0 1 56.9143 255.9725)" font-family="'MyriadPro-Regular'" font-size="12">Hello, World Project</text>
<text transform="matrix(1 0 0 1 57.4958 351.4874)" font-family="'MyriadPro-Regular'" font-size="8.7927">More Projects</text>
<rect x="57.4" y="271.1" fill="none" stroke="#000000" stroke-miterlimit="10" width="75.1" height="61.8"/>
<rect x="57.4" y="358.3" fill="none" stroke="#000000" stroke-miterlimit="10" width="47" height="38.7"/>
<rect x="112.6" y="358.3" fill="none" stroke="#000000" stroke-miterlimit="10" width="47" height="38.7"/>
<rect x="169" y="358.3" fill="none" stroke="#000000" stroke-miterlimit="10" width="47" height="38.7"/>
<rect x="222.4" y="358.3" fill="none" stroke="#000000" stroke-miterlimit="10" width="47" height="38.7"/>
<text transform="matrix(1 0 0 1 262.0612 265.1731)" font-family="'MyriadPro-Regular'" font-size="6.6939">Difficulty: 5</text>
<text transform="matrix(1 0 0 1 223.9709 257.6624)" font-family="'MyriadPro-Regular'" font-size="6.6939">Author: Computer Expert</text>
<text transform="matrix(1 0 0 1 210.5583 250.1516)" font-family="'MyriadPro-Regular'" font-size="6.6939">Last Updated: October 8, 2018</text>
<text transform="matrix(1 0 0 1 61.1106 283.2337)" font-family="'MyriadPro-Regular'" font-size="9.0821">Hello, World!</text>
<text transform="matrix(1 0 0 1 136.8988 275.9875)"><tspan x="0" y="0" font-family="'MyriadPro-Regular'" font-size="6.6544">This is a project description. It needs to have a whole</tspan><tspan x="0" y="8" font-family="'MyriadPro-Regular'" font-size="6.6544">bunch of words so that you can tell what’s going to</tspan><tspan x="0" y="16" font-family="'MyriadPro-Regular'" font-size="6.6544">happen when you try and do this project. This should</tspan><tspan x="0" y="24" font-family="'MyriadPro-Regular'" font-size="6.6544">be enough.</tspan></text>
<text transform="matrix(1 0 0 1 141.3455 135.7422)" font-family="'MyriadPro-Regular'" font-size="14.7517">Hello, World Project</text>
<rect x="141.9" y="154.4" fill="none" stroke="#000000" stroke-miterlimit="10" width="92.3" height="76"/>
<rect x="344.8" y="261.5" fill="none" stroke="#000000" stroke-miterlimit="10" width="57.7" height="47.6"/>
<text transform="matrix(1 0 0 1 415.1234 147.0528)" font-family="'MyriadPro-Regular'" font-size="8.2288">Difficulty: 5</text>
<text transform="matrix(1 0 0 1 368.2991 137.8194)" font-family="'MyriadPro-Regular'" font-size="8.2288">Author: Computer Expert</text>
<text transform="matrix(1 0 0 1 351.8109 128.5869)" font-family="'MyriadPro-Regular'" font-size="8.2288">Last Updated: October 8, 2018</text>
<rect x="360" y="271.8" fill="#FFFFFF" width="97.7" height="132.6"/>
<text transform="matrix(1 0 0 1 146.5047 169.2549)" font-family="'MyriadPro-Regular'" font-size="11.1647">Hello, World!</text>
<g id="RMG9ef.tif">
	<g>
		<path d="M461.5,336.2c0,22.5,0,44.9,0,67.4c0,3.3-1.6,5.8-4.6,6.8c-0.8,0.3-1.6,0.3-2.4,0.3c-30.5,0-61,0-91.5,0
			c-4.4,0-7.1-2.8-7.1-7.2c0-44.9,0-89.8,0-134.7c0-4.5,2.7-7.2,7.2-7.2c30.3,0,60.7,0,91,0c2.8,0,5,0.9,6.5,3.2
			c0.8,1.2,1,2.6,0.9,4C461.5,291.2,461.5,313.7,461.5,336.2z M362.4,336c0,20,0,40,0,59.9c0,1.4,0,1.4,1.4,1.4
			c29.9,0,59.8,0,89.7,0c1,0,1.4-0.3,1.4-1.3c0-3.4,0-6.9,0-10.3c0-36.4,0-72.8,0-109.3c0-1.7,0-1.7-1.5-1.7c-29.8,0-59.6,0-89.4,0
			c-1.5,0-1.5,0-1.5,1.5C362.4,296.2,362.4,316.1,362.4,336z"/>
		<path fill="#FFFFFF" d="M362.4,336c0-19.9,0-39.8,0-59.7c0-1.5,0-1.5,1.5-1.5c29.8,0,59.6,0,89.4,0c1.5,0,1.5,0,1.5,1.7
			c0,36.4,0,72.8,0,109.3c0,3.4,0,6.9,0,10.3c0,1-0.4,1.3-1.4,1.3c-29.9,0-59.8,0-89.7,0c-1.4,0-1.4,0-1.4-1.4
			C362.4,376,362.4,356,362.4,336z"/>
	</g>
</g>
<text transform="matrix(1 0 0 1 239.6717 160.3467)"><tspan x="0" y="0" font-family="'MyriadPro-Regular'" font-size="8.1803">This is a project description. It needs to have a whole</tspan><tspan x="0" y="9.8" font-family="'MyriadPro-Regular'" font-size="8.1803">bunch of words so that you can tell what’s going to</tspan><tspan x="0" y="19.6" font-family="'MyriadPro-Regular'" font-size="8.1803">happen when you try and do this project. This should</tspan><tspan x="0" y="29.4" font-family="'MyriadPro-Regular'" font-size="8.1803">be enough.</tspan></text>
<text transform="matrix(1 0 0 1 367.3823 289.3114)" font-family="'MyriadPro-Regular'" font-size="8.25">Hello, World Project</text>
<rect x="365.5" y="299.3" fill="none" stroke="#000000" stroke-miterlimit="10" width="50" height="41.2"/>
<text transform="matrix(1 0 0 1 369.0367 309.3636)" font-family="'MyriadPro-Regular'" font-size="6.0488">Hello, World!</text>
<text transform="matrix(1 0 0 1 371.2921 353.0906)"><tspan x="0" y="0" font-family="'MyriadPro-Regular'" font-size="6.6544">This is a project description.</tspan><tspan x="0" y="8" font-family="'MyriadPro-Regular'" font-size="6.6544">It needs to have a whole</tspan><tspan x="0" y="16" font-family="'MyriadPro-Regular'" font-size="6.6544">bunch of words so that you</tspan><tspan x="0" y="24" font-family="'MyriadPro-Regular'" font-size="6.6544">can tell what’s going to</tspan><tspan x="0" y="31.9" font-family="'MyriadPro-Regular'" font-size="6.6544">happen when you try </tspan><tspan x="0" y="39.9" font-family="'MyriadPro-Regular'" font-size="6.6544">nd do this project. This should</tspan><tspan x="0" y="47.9" font-family="'MyriadPro-Regular'" font-size="6.6544">be enough.</tspan></text>
</svg>
