<?xml version="1.0" encoding="utf-8"?>
<!-- Generator: Adobe Illustrator 18.0.0, SVG Export Plug-In . SVG Version: 6.00 Build 0)  -->
<!DOCTYPE svg PUBLIC "-//W3C//DTD SVG 1.1//EN" "http://www.w3.org/Graphics/SVG/1.1/DTD/svg11.dtd">
<svg version="1.1" id="Layer_1" xmlns="http://www.w3.org/2000/svg" xmlns:xlink="http://www.w3.org/1999/xlink" x="0px" y="0px"
	 viewBox="0 0 500 500" enable-background="new 0 0 500 500" xml:space="preserve">
<g>
	<path d="M220.8,102.6c-0.8,0.2-1.6,0.3-2.4,0.5c-4.1,1-8.1,2.1-11.9,3.9c-2.6,1.2-5,2.7-7,4.8c-2.5,2.8-2.7,5.8-0.5,8.8
		c1.4,1.9,3.1,3.4,5.1,4.6c1.3,0.9,2.7,1.6,4.1,2.4c0.8,0.5,1.2,1.1,1.1,2c0,0.9-0.5,1.6-1.3,1.9c-0.7,0.3-1.4,0.2-2.1-0.1
		c-2.4-1.3-4.8-2.7-6.9-4.5c-2-1.6-3.7-3.5-4.8-5.8c-1.7-3.4-1.6-6.8,0.3-10.1c1.5-2.6,3.8-4.5,6.3-6.1c4-2.5,8.3-4.1,12.8-5.3
		c2-0.5,4-1,6-1.5c-0.1-0.3-0.1-0.6-0.2-1c-1-4.8-1.7-9.6-1.6-14.5c0-3,0.4-6,1.4-8.9c0.8-2.3,2-4.4,4-6c2.3-1.8,4.9-2.4,7.7-2.2
		c3.2,0.3,6.1,1.6,8.8,3.3c1.9,1.2,3.7,2.6,5.5,3.9c1.3,1,1.1,2.9-0.3,3.7c-0.9,0.5-1.7,0.3-2.5-0.3c-1.1-0.8-2.1-1.7-3.3-2.5
		c-1.9-1.4-4-2.5-6.3-3.2c-1.5-0.5-3-0.7-4.6-0.4c-2.1,0.5-3.4,1.9-4.3,3.7c-0.9,1.9-1.4,3.9-1.5,6c-0.1,2-0.2,3.9-0.1,5.9
		c0.1,2.4,0.5,4.8,0.8,7.3c0.2,1.4,0.5,2.7,0.8,4c0.1,0.3,0.2,0.4,0.5,0.3c2.1-0.3,4.3-0.6,6.4-0.8c1.7-0.2,3.4-0.3,5.1-0.4
		c1.2-0.1,2.4-0.1,3.6-0.2c0.3,0,0.5-0.1,0.7-0.4c3.6-4.7,7.5-9.1,11.8-13.2c3.9-3.8,8.1-7.3,12.8-10.1c3.1-1.9,6.4-3.4,10.1-4.1
		c2.6-0.5,5.2-0.3,7.7,0.9c2.6,1.3,4.2,3.4,5.2,6.1c0.8,2.2,1.1,4.4,1.2,6.7c0.1,3.3-0.3,6.5-0.9,9.7c-0.2,1.3-1.4,2.1-2.6,1.9
		c-1.3-0.3-2-1.4-1.7-2.7c0.6-3,0.9-6.1,0.8-9.2c-0.1-1.8-0.4-3.5-1.1-5.2c-1.2-2.9-3.6-4.3-6.8-4c-2.6,0.2-5,1.2-7.4,2.3
		c-3.6,1.8-6.8,4.2-9.9,6.8c-4.3,3.7-8.3,7.7-12,12c-0.6,0.7-1.2,1.4-1.9,2.2c0.3,0,0.5,0,0.7,0c3.7,0.2,7.3,0.2,10.9,0.5
		c3.7,0.3,7.3,0.8,10.9,1.3c5,0.7,10,1.8,14.9,3.2c5.3,1.5,10.5,3.4,15.3,6.1c3.3,1.8,6.3,3.9,8.7,6.9c1.5,1.8,2.5,3.8,2.8,6.1
		c0.3,2.3-0.1,4.5-1.3,6.6c-1.3,2.3-3.2,4-5.3,5.5c-2.5,1.7-5.2,3-8,4.1c-1.2,0.4-2.4-0.1-2.9-1.2c-0.5-1.2,0.1-2.4,1.4-2.9
		c2.1-0.8,4.2-1.8,6.1-3c1.6-1,3.1-2.2,4.2-3.7c1.7-2.3,1.9-4.7,0.4-7.2c-1.2-2.1-3.1-3.7-5.1-5.1c-3.5-2.5-7.3-4.2-11.3-5.7
		c-5.1-1.9-10.4-3.3-15.7-4.3c-3.2-0.6-6.4-1.1-9.6-1.5c-3-0.4-6-0.6-9-0.8c-3.7-0.2-7.4-0.2-11.1-0.4c-0.5,0-0.9,0.2-1.2,0.6
		c-3.9,5.3-7.5,10.8-10.7,16.5c-0.2,0.3-0.2,0.5,0,0.9c3.3,7.6,7.2,14.9,11.6,21.9c2.8,4.4,5.9,8.6,9.2,12.6
		c3.3,3.9,6.9,7.6,11.1,10.6c2.4,1.8,5,3.3,7.9,4.1c1.6,0.4,3.3,0.6,4.9-0.1c1.8-0.8,2.9-2.2,3.6-4c0.9-2.1,1.2-4.2,1.4-6.5
		c0.3-3.7-0.1-7.4-0.6-11.1c-0.9-5.8-2.4-11.4-4.3-16.9c-1.8-5.1-3.9-10.2-6.2-15.1c-0.6-1.2-0.4-2.4,0.6-3c1.2-0.8,2.7-0.4,3.3,0.9
		c0.7,1.6,1.5,3.1,2.2,4.7c1.8,4,3.4,8.1,4.8,12.3c1.6,4.7,2.9,9.5,3.8,14.4c0.7,3.9,1.2,7.9,1.1,11.9c-0.1,3.4-0.5,6.7-1.8,9.9
		c-1,2.5-2.5,4.6-4.9,5.9c-2.3,1.3-4.9,1.6-7.5,1.1c-3.3-0.6-6.2-2-9-3.8c-3.9-2.5-7.2-5.6-10.4-8.9c-3.2-3.3-6-6.9-8.7-10.6
		c-3-4.1-5.7-8.4-8.3-12.8c-2.3-4.1-4.5-8.2-6.4-12.5c-0.1-0.1-0.1-0.3-0.3-0.5c-0.1,0.2-0.2,0.3-0.3,0.4c-2.5,5-4.7,10.1-6.4,15.4
		c-1.2,3.8-2.2,7.7-2.7,11.7c-0.4,3-0.5,6,0.2,9c0.4,1.8,1.1,3.4,2.6,4.6c1,0.8,2.1,1.2,3.4,1.3c2.2,0.2,4.2-0.4,6.2-1.2
		c2.8-1.1,5.4-2.6,7.8-4.3c0.5-0.3,1-0.6,1.5-0.7c1-0.2,1.9,0.4,2.3,1.3c0.4,1,0.1,2.1-0.7,2.7c-1.4,1-2.8,1.9-4.3,2.8
		c-2.5,1.5-5.1,2.7-7.9,3.4c-2.3,0.6-4.7,0.8-7,0.2c-3.4-0.8-5.7-2.9-7.1-6c-1.1-2.4-1.5-5-1.6-7.6c-0.1-2.7,0.2-5.4,0.6-8.1
		c0.8-4.9,2.2-9.6,3.9-14.3c1.7-4.6,3.7-9.1,6-13.5c0.3-0.6,0.6-1.2,1-1.8c0.2-0.3,0.2-0.7,0.1-1c-0.9-2.5-1.9-5-2.8-7.5
		c-0.7-2.1-1.3-4.2-1.9-6.3C221,103.2,220.9,102.9,220.8,102.6z M228.7,112.7c2.7-4.1,5.2-8,7.8-12c-3.8,0.2-7.5,0.6-11.3,1.2
		C226.3,105.5,227.5,109,228.7,112.7z"/>
	<path d="M252,113.2c3.7,0,6.7,3,6.7,6.6c0,3.7-3,6.7-6.7,6.7c-3.7,0-6.7-3-6.7-6.7C245.4,116.1,248.3,113.2,252,113.2z"/>
	<path fill="#FFFFFF" d="M228.7,112.7c-1.2-3.6-2.4-7.2-3.5-10.8c3.8-0.6,7.6-1,11.3-1.2C233.9,104.7,231.3,108.6,228.7,112.7z"/>
</g>
<g>
	<path d="M451.4,127.8c-5,7-11.2,13.2-20.7,17.2c-4.7,2-9.7,2.8-15,2.8c-14.3,0.1-28.5-0.1-42.8,0.1c-4.3,0.1-5.1-1.1-5.1-4
		c0-3.5,2.2-8.2-1-10.2c-2.7-1.7-8.7-0.5-13.3-0.6c-7.8,0-15.6-0.2-23.4,0.1c-4,0.1-5.2-0.9-4.6-3.6c0.1-0.6,0.1-1.3,0-1.9
		c-0.6-2.9,0.8-3.9,4.9-3.8c11.2,0.2,22.4,0,33.6,0.1c3.7,0,4.3-0.9,3.9-4.3c-0.6-4.8-0.5-9.7,0.1-14.5c0.4-3.3-1.1-3.7-4.4-3.7
		c-11,0.1-22.1-0.1-33.1,0.1c-4.2,0.1-5.1-1-5-3.9c0.2-6.1,0-6.1,8.4-6.1c10,0,20-0.1,30,0c3,0,4.3-0.5,4.1-3
		c-0.3-2.8,0.2-5.6-0.1-8.4c-0.2-2.4,1.1-2.9,4.1-2.9c15.1,0.1,30.2-0.1,45.3,0.1c12.2,0.2,20.5,5.5,27.5,12.3
		c2.4,2.3,4.7,4.7,6.2,7.3"/>
	<path d="M56,100c4.8-6.8,11-12.9,20.1-17.1c4.7-2.2,10-3,15.4-3.1c14.4-0.2,28.8,0,43.3-0.1c3.9,0,5.1,1,4.9,3.8
		c-0.2,2.7,0.2,5.3-0.2,8c-0.3,2.5,0.8,3,3.9,3c11.2-0.1,22.4,0.1,33.6-0.1c4.2-0.1,5.1,1,5,3.9c-0.2,5.4,0,5.4-7.3,5.4
		c-9.7,0-19.3,0.2-29-0.1c-4.7-0.1-6.6,0.6-6.1,4.5c0.6,5,0.3,10.1,0,15.2c-0.1,2.4,0.8,3,4,3c11.2-0.1,22.4,0.1,33.6-0.1
		c3.6-0.1,5.1,0.4,4.9,3.5c-0.3,6.5,0,6.5-8.5,6.5c-10,0-20,0.1-30,0c-3,0-4.3,0.5-3.9,3c0.4,2.8,0,5.6,0.2,8.4
		c0.1,1.9-0.6,2.7-3.4,2.7c-15.6-0.1-31.2,0.1-46.8-0.1c-11.8-0.2-19.9-5.5-26.6-12c-2.4-2.4-4.8-4.9-6.5-7.6"/>
	<path d="M308.9,116.1 M196.7,115.8"/>
</g>
<g id="FKOfqk.tif">
	
		<image overflow="visible" width="1748" height="922" id="Layer_0_1_" xlink:href="9B9FD6088C27ABEE.png"  transform="matrix(0.337 0 0 0.337 -60.2613 -368.3114)">
	</image>
</g>
<g>
	<g>
		<rect x="73.5" y="222.1" fill="#FFFFFF" width="353.5" height="227.1"/>
		<g id="_x30_L5J4s.tif">
			<g>
				<path d="M251.6,428.9c71.9,0,143.8,0,215.7,0c1.2,0,2.4,0,3.6,0c2.3,0.1,3,0.9,2.6,3.5c-2.1,12.8-13.5,22.4-26.6,22.8
					c-1.3,0-2.6,0.1-3.9,0.1c-127.8,0-255.5,0-383.3,0c-9.6,0-18.1-2.6-24-10.5c-2.6-3.4-4.3-7.7-5.7-11.8c-1.1-3.4-0.1-4.2,3.5-4.2
					c16.8,0,33.6,0,50.4,0C139.9,428.9,195.8,428.9,251.6,428.9z M224.5,441c0,0.5-0.1,1-0.1,1.5c1.8,0.5,3.6,1.3,5.5,1.4
					c11,0.1,22.1,0.1,33.2,0.1c4,0,8,0.1,12-0.1c1.2-0.1,2.4-1.3,3.6-2c-1.1-0.5-2.3-1.5-3.4-1.5c-15.5-0.1-31-0.1-46.5,0
					C227.3,440.3,225.9,440.8,224.5,441z M394.8,442.1c0-0.3,0-0.6,0-1c-7.1,0-14.2,0-21.3,0c0,0.3,0,0.6,0,1
					C380.6,442.1,387.7,442.1,394.8,442.1z M398.7,441.2c0,0.3,0,0.7,0,1c2.5,0,4.9,0,7.4,0c0-0.3,0-0.7,0-1
					C403.6,441.2,401.1,441.2,398.7,441.2z M409.1,441.2c0,0.3,0,0.6,0,0.9c2.2,0,4.4,0,6.6,0c0-0.3,0-0.6,0-0.9
					C413.4,441.2,411.3,441.2,409.1,441.2z"/>
				<path d="M252,228.6c-55.5,0-111.1,0-166.6,0c-1.2,0-2.4,0-3.6,0.1c-2,0.2-3.2,1.2-3.1,3.4c0.1,1.1,0,2.2,0,3.3
					c0,61.4,0,122.8-0.1,184.2c0,1.7-0.7,4.9-1.5,5c-2.9,0.5-5.9,0.1-8.9-0.4c-0.4-0.1-0.9-2-0.9-3.1c0-19.8,0-39.7,0-59.5
					c0-42.2,0-84.4,0-126.6c0-5.9,0.9-11.7,6.2-15.3c2.9-2,6.6-2.8,10-4.1c0.7-0.2,1.5-0.1,2.3-0.1c110.5,0,221.1,0,331.6,0
					c6.1,0,11.4,1.8,15,6.8c1.6,2.2,2.4,5,3.2,7.7c0.4,1.4,0.2,3,0.2,4.5c0,62.4,0,124.7,0.1,187.1c0,2.6-0.9,3.5-3.4,3.5
					c-9.3,0-8.1,0.8-8.1-7.9c0-61,0-121.9,0-182.9c0-5.6,0-5.6-5.6-5.6C363.3,228.6,307.6,228.6,252,228.6z M251.7,218.9
					c-1.2,1.5-2.4,2.3-2.3,3.1c0,0.8,1.3,2.3,1.8,2.2c1-0.1,2.2-1.1,2.5-2C253.9,221.7,252.8,220.6,251.7,218.9z"/>
				<path fill="#FFFFFF" d="M224.5,441c1.4-0.3,2.8-0.8,4.2-0.8c15.5-0.1,31-0.1,46.5,0c1.2,0,2.3,1,3.4,1.5c-1.2,0.7-2.4,1.9-3.6,2
					c-4,0.3-8,0.1-12,0.1c-11.1,0-22.1,0.1-33.2-0.1c-1.8,0-3.6-0.9-5.5-1.4C224.4,442,224.5,441.5,224.5,441z"/>
				<path fill="#FFFFFF" d="M394.8,442.1c-7.1,0-14.2,0-21.3,0c0-0.3,0-0.6,0-1c7.1,0,14.2,0,21.3,0
					C394.8,441.5,394.8,441.8,394.8,442.1z"/>
				<path fill="#FFFFFF" d="M398.7,441.2c2.4,0,4.9,0,7.3,0c0,0.3,0,0.7,0,1c-2.5,0-4.9,0-7.4,0
					C398.7,441.8,398.7,441.5,398.7,441.2z"/>
				<path fill="#FFFFFF" d="M409.1,441.2c2.2,0,4.4,0,6.6,0c0,0.3,0,0.6,0,0.9c-2.2,0-4.4,0-6.6,0
					C409.1,441.8,409.1,441.5,409.1,441.2z"/>
				<path fill="#FFFFFF" d="M251.7,218.9c1,1.7,2.2,2.8,2,3.4c-0.3,0.9-1.6,1.8-2.5,2c-0.5,0.1-1.8-1.4-1.8-2.2
					C249.4,221.3,250.5,220.5,251.7,218.9z"/>
			</g>
		</g>
		<rect x="67.5" y="416.8" width="11.3" height="24.2"/>
		<rect x="424.5" y="416.8" width="11.4" height="24.2"/>
	</g>
	<line fill="none" stroke="#000000" stroke-width="4" stroke-miterlimit="10" x1="135" y1="223.4" x2="135" y2="432.6"/>
	<line fill="none" stroke="#000000" stroke-width="4" stroke-miterlimit="10" x1="345.8" y1="223.4" x2="345.8" y2="432.6"/>
	<text transform="matrix(1 0 0 1 83.3262 237.4317)" font-family="'MyriadPro-Regular'" font-size="7.7285">Project</text>
	<text transform="matrix(1 0 0 1 91.6485 245.7545)" font-family="'MyriadPro-Regular'" font-size="7.7285">index.html</text>
	<text transform="matrix(1 0 0 1 354.0098 243.3766)" font-family="'MyriadPro-Regular'" font-size="7.7285">Project 1:</text>
	<text transform="matrix(1 0 0 1 91.6485 256.0587)" font-family="'MyriadPro-Regular'" font-size="7.7285">app.js</text>
	<text transform="matrix(1 0 0 1 355.5948 320.2618)"><tspan x="0" y="0" font-family="'MyriadPro-Regular'" font-size="7.7285">Step 1:</tspan><tspan x="0" y="9.3" font-family="'MyriadPro-Regular'" font-size="7.7285">This is code!</tspan><tspan x="0" y="27.8" font-family="'MyriadPro-Regular'" font-size="7.7285">Welcome!</tspan></text>
	<text transform="matrix(1 0 0 1 354.4063 257.3902)" font-family="'MyriadPro-Regular'" font-size="10.5097">Hello, World</text>
	<rect x="352.8" y="265.4" fill="none" stroke="#000000" stroke-miterlimit="10" width="57.1" height="42"/>
	<text transform="matrix(1 0 0 1 141.981 244.0841)"><tspan x="0" y="0" font-family="'MyriadPro-Regular'" font-size="12.4785">&lt;html&gt;</tspan><tspan x="0" y="15" font-family="'MyriadPro-Regular'" font-size="12.4785">&lt;head&gt;</tspan><tspan x="0" y="29.9" font-family="'MyriadPro-Regular'" font-size="12.4785">&lt;title&gt;Hello, World&lt;/title&gt;</tspan><tspan x="0" y="44.9" font-family="'MyriadPro-Regular'" font-size="12.4785">&lt;/head&gt;</tspan><tspan x="0" y="59.9" font-family="'MyriadPro-Regular'" font-size="12.4785">&lt;body&gt;</tspan><tspan x="0" y="74.9" font-family="'MyriadPro-Regular'" font-size="12.4785">&lt;h1&gt;Hello, World&lt;/h1&gt;</tspan><tspan x="0" y="89.8" font-family="'MyriadPro-Regular'" font-size="12.4785">&lt;/body&gt;</tspan><tspan x="0" y="104.8" font-family="'MyriadPro-Regular'" font-size="12.4785">&lt;/html&gt;</tspan></text>
</g>
</svg>
