<?xml version="1.0" encoding="utf-8"?>
<!-- Generator: Adobe Illustrator 18.0.0, SVG Export Plug-In . SVG Version: 6.00 Build 0)  -->
<!DOCTYPE svg PUBLIC "-//W3C//DTD SVG 1.1//EN" "http://www.w3.org/Graphics/SVG/1.1/DTD/svg11.dtd">
<svg version="1.1" id="Layer_1" xmlns="http://www.w3.org/2000/svg" xmlns:xlink="http://www.w3.org/1999/xlink" x="0px" y="0px"
	 viewBox="0 0 800 800" enable-background="new 0 0 800 800" xml:space="preserve">
<g>
	<g>
		<polyline fill="none" stroke="#000000" stroke-width="7" stroke-miterlimit="10" points="363.8,684.5 363.8,690.5 357.8,690.5 		
			"/>
		
			<line fill="none" stroke="#000000" stroke-width="7" stroke-miterlimit="10" stroke-dasharray="11.6606,11.6606" x1="346.2" y1="690.5" x2="72.1" y2="690.5"/>
		<polyline fill="none" stroke="#000000" stroke-width="7" stroke-miterlimit="10" points="66.3,690.5 60.3,690.5 60.3,684.5 		"/>
		
			<line fill="none" stroke="#000000" stroke-width="7" stroke-miterlimit="10" stroke-dasharray="11.9551,11.9551" x1="60.3" y1="672.5" x2="60.3" y2="104.7"/>
		<polyline fill="none" stroke="#000000" stroke-width="7" stroke-miterlimit="10" points="60.3,98.7 60.3,92.7 66.3,92.7 		"/>
		
			<line fill="none" stroke="#000000" stroke-width="7" stroke-miterlimit="10" stroke-dasharray="11.6606,11.6606" x1="78" y1="92.7" x2="352" y2="92.7"/>
		<polyline fill="none" stroke="#000000" stroke-width="7" stroke-miterlimit="10" points="357.8,92.7 363.8,92.7 363.8,98.7 		"/>
		
			<line fill="none" stroke="#000000" stroke-width="7" stroke-miterlimit="10" stroke-dasharray="11.9551,11.9551" x1="363.8" y1="110.7" x2="363.8" y2="678.5"/>
	</g>
</g>
<g>
	<path fill="#F37D20" d="M521.9,254.3c-0.2-0.7-0.5-1.4-0.7-2.1c-5.1-13-10.3-25.9-15.4-38.9c-0.1-0.2-0.2-0.4-0.3-0.7
		c-0.2,0.3-0.4,0.5-0.5,0.7c-8,11.9-16.1,23.7-24.1,35.6c-0.4,0.6-0.8,0.8-1.5,0.8c-5.1,0-10.2,0-15.2,0c-0.3,0-0.5,0-0.9,0
		c0.4-0.6,0.7-1.1,1-1.6c8.8-13.6,17.5-27.2,26.3-40.7c2.5-3.9,5-7.7,7.5-11.6c0.2-0.4,0.3-0.7,0.1-1.1c-1.5-4.5-2.9-8.9-4.3-13.4
		c-0.2-0.5-0.4-0.7-0.9-0.7c-3.4,0-6.7,0-10.1,0c-0.5,0-0.7-0.2-0.7-0.7c0-4.1,0-8.2,0-12.4c0-0.3,0-0.6,0-0.9c7.2,0,14.5,0,21.7,0
		c1.9,4.7,3.7,9.4,5.6,14.1c7.4,18.6,14.8,37.1,22.1,55.7c0.2,0.6,0.4,0.7,1,0.5c3-1,6.1-1.9,9.2-2.9c0.7-0.2,1.3-0.4,2-0.6
		c0.1,0.1,0.1,0.2,0.1,0.2c1.3,3.9,2.5,7.9,3.8,11.8c0.2,0.5,0,0.7-0.4,0.8c-8.1,2.6-16.2,5.1-24.3,7.7c-0.3,0.1-0.6,0.3-0.9,0.4
		C521.9,254.3,521.9,254.3,521.9,254.3z"/>
</g>
<g>
	<path fill="#F37D20" d="M521.9,423.5c-0.2-0.7-0.5-1.4-0.7-2.1c-5.1-13-10.3-25.9-15.4-38.9c-0.1-0.2-0.2-0.4-0.3-0.7
		c-0.2,0.3-0.4,0.5-0.5,0.7c-8,11.9-16.1,23.7-24.1,35.6c-0.4,0.6-0.8,0.8-1.5,0.8c-5.1,0-10.2,0-15.2,0c-0.3,0-0.5,0-0.9,0
		c0.4-0.6,0.7-1.1,1-1.6c8.8-13.6,17.5-27.2,26.3-40.7c2.5-3.9,5-7.7,7.5-11.6c0.2-0.4,0.3-0.7,0.1-1.1c-1.5-4.5-2.9-8.9-4.3-13.4
		c-0.2-0.5-0.4-0.7-0.9-0.7c-3.4,0-6.7,0-10.1,0c-0.5,0-0.7-0.2-0.7-0.7c0-4.1,0-8.2,0-12.4c0-0.3,0-0.6,0-0.9c7.2,0,14.5,0,21.7,0
		c1.9,4.7,3.7,9.4,5.6,14.1c7.4,18.6,14.8,37.1,22.1,55.7c0.2,0.6,0.4,0.7,1,0.5c3-1,6.1-1.9,9.2-2.9c0.7-0.2,1.3-0.4,2-0.6
		c0.1,0.1,0.1,0.2,0.1,0.2c1.3,3.9,2.5,7.9,3.8,11.8c0.2,0.5,0,0.7-0.4,0.8c-8.1,2.6-16.2,5.1-24.3,7.7c-0.3,0.1-0.6,0.3-0.9,0.4
		C521.9,423.5,521.9,423.5,521.9,423.5z"/>
</g>
<g>
	<path fill="#F37D20" d="M521.9,611.3c-0.2-0.7-0.5-1.4-0.7-2.1c-5.1-13-10.3-25.9-15.4-38.9c-0.1-0.2-0.2-0.4-0.3-0.7
		c-0.2,0.3-0.4,0.5-0.5,0.7c-8,11.9-16.1,23.7-24.1,35.6c-0.4,0.6-0.8,0.8-1.5,0.8c-5.1,0-10.2,0-15.2,0c-0.3,0-0.5,0-0.9,0
		c0.4-0.6,0.7-1.1,1-1.6c8.8-13.6,17.5-27.2,26.3-40.7c2.5-3.9,5-7.7,7.5-11.6c0.2-0.4,0.3-0.7,0.1-1.1c-1.5-4.5-2.9-8.9-4.3-13.4
		c-0.2-0.5-0.4-0.7-0.9-0.7c-3.4,0-6.7,0-10.1,0c-0.5,0-0.7-0.2-0.7-0.7c0-4.1,0-8.2,0-12.4c0-0.3,0-0.6,0-0.9c7.2,0,14.5,0,21.7,0
		c1.9,4.7,3.7,9.4,5.6,14.1c7.4,18.6,14.8,37.1,22.1,55.7c0.2,0.6,0.4,0.7,1,0.5c3-1,6.1-1.9,9.2-2.9c0.7-0.2,1.3-0.4,2-0.6
		c0.1,0.1,0.1,0.2,0.1,0.2c1.3,3.9,2.5,7.9,3.8,11.8c0.2,0.5,0,0.7-0.4,0.8c-8.1,2.6-16.2,5.1-24.3,7.7c-0.3,0.1-0.6,0.3-0.9,0.4
		C521.9,611.3,521.9,611.3,521.9,611.3z"/>
</g>
<image overflow="visible" width="900" height="900" xlink:href="../../../Desktop/aws-api-gateway-icon.png"  transform="matrix(0.1482 0 0 0.1482 618.9535 325.1903)">
</image>
<text transform="matrix(1 0 0 1 455.2791 278.783)" font-family="'MyriadPro-Regular'" font-size="15.4535">projects service</text>
<text transform="matrix(1 0 0 1 150.0904 278.7834)" font-family="'MyriadPro-Regular'" font-size="15.4535">projects database</text>
<text transform="matrix(1 0 0 1 73.3462 113.6672)" font-family="'MyriadPro-Regular'" font-size="15.4535">DBMS (RedShift, Mongo, PostgreSQL, Etc..)</text>
<text transform="matrix(1 0 0 1 458.2772 446.8063)" font-family="'MyriadPro-Regular'" font-size="15.4535">articles service</text>
<text transform="matrix(1 0 0 1 659.4399 474.7133)" font-family="'MyriadPro-Regular'" font-size="15.4535">api gateway</text>
<text transform="matrix(1 0 0 1 412.1951 637.5039)" font-family="'MyriadPro-Regular'" font-size="15.4535">things we haven’t thought of</text>
<g>
	<path d="M254.1,210.5c0,10.6,0,21.2,0,31.8c0,2.4-0.8,4.5-2.4,6.3c-2.8,3.2-6.5,5.1-10.3,6.7c-6.9,2.8-14.1,4.2-21.4,5
		c-7,0.8-14,0.9-21,0.4c-10.1-0.7-19.9-2.4-29.1-6.8c-2.6-1.3-5.1-2.8-7.1-5c-1.8-1.9-2.7-4.1-2.7-6.8c0.1-21.2,0.1-42.3,0-63.5
		c0-2.7,0.9-4.8,2.7-6.7c2.4-2.6,5.5-4.4,8.7-5.8c6.6-2.9,13.6-4.5,20.8-5.4c7.6-1,15.3-1.2,23-0.7c10,0.7,19.9,2.3,29,6.7
		c2.9,1.4,5.5,3.1,7.6,5.5c1.5,1.8,2.3,3.8,2.3,6.2C254.1,189.2,254.1,199.9,254.1,210.5z M206.7,188.8c8.4-0.1,16.3-0.8,24.1-2.7
		c4.5-1.1,9-2.5,13-5.1c4-2.6,4.2-3.6,0-6.1c-2.6-1.5-5.4-2.7-8.3-3.7c-7.6-2.6-15.4-3.6-23.4-4c-10.2-0.4-20.4,0.3-30.3,3
		c-4.2,1.1-8.4,2.5-12,5.1c-3.2,2.2-3.3,3.1,0,5.3c2.4,1.5,5,2.7,7.7,3.7C187.1,187.7,197,188.6,206.7,188.8z M246.9,187.6
		c-1.3,0.6-2.4,1.3-3.5,1.8c-8.9,4-18.4,5.6-28,6.3c-7,0.5-14,0.4-21-0.4c-6.6-0.7-13.2-1.9-19.4-4.3c-2.6-1-5-2.1-7.6-3.3
		c0,0.4,0,0.8,0,1.2c0,3.2,0.1,6.4,0,9.6c0,1.3,0.4,2.2,1.4,2.9c1.4,1,2.9,2,4.4,2.7c7.5,3.6,15.6,5.1,23.9,5.8
		c8.6,0.8,17.2,0.6,25.8-0.7c5.8-0.9,11.5-2.1,16.9-4.5c2-0.9,4-2.1,5.8-3.4c0.7-0.4,1.3-1.4,1.3-2.2
		C247,195.4,246.9,191.6,246.9,187.6z M246.9,209.3c-0.9,0.5-1.6,0.9-2.4,1.2c-0.7,0.4-1.5,0.7-2.2,1.1c-8.7,3.7-17.9,5.2-27.3,5.9
		c-6.1,0.4-12.3,0.3-18.4-0.2c-6.6-0.6-13.2-1.6-19.5-3.8c-3.3-1.1-6.5-2.6-9.7-3.9c0,0.2,0,0.5,0,0.8c0,3.3,0,6.6,0,9.9
		c0,1.1,0.3,2,1.2,2.6c1.7,1.1,3.3,2.3,5.1,3.1c7.5,3.4,15.4,4.9,23.5,5.6c6.5,0.6,12.9,0.6,19.4,0c7-0.6,13.8-1.8,20.4-4.1
		c3-1.1,6-2.3,8.5-4.4c0.7-0.6,1.4-1.5,1.4-2.3C247,217.1,246.9,213.3,246.9,209.3z M167.4,230.9c0,3.3,0.2,6.5-0.1,9.5
		c-0.2,2.8,1,4.4,3.2,5.6c0.4,0.2,0.7,0.4,1.1,0.6c7.3,3.8,15.2,5.5,23.2,6.4c8.1,0.9,16.1,0.9,24.2,0.1c6.6-0.7,13.1-1.9,19.3-4.4
		c2.5-1,4.9-2.5,7.2-3.9c1.1-0.6,1.6-1.7,1.5-3.1c-0.1-1.6,0-3.2,0-4.7c0-2,0-4,0-5.8c-3.2,1.3-6.2,2.7-9.4,3.8
		c-7.7,2.6-15.8,3.7-23.9,4.2c-9.3,0.5-18.5,0-27.6-1.8C179.5,236.2,173.3,234.3,167.4,230.9z"/>
	<path fill="#FFFFFF" d="M206.7,188.8c-9.7-0.1-19.6-1.1-29.2-4.5c-2.7-1-5.3-2.2-7.7-3.7c-3.3-2.1-3.2-3.1,0-5.3
		c3.6-2.5,7.8-3.9,12-5.1c9.9-2.7,20.1-3.5,30.3-3c8,0.3,15.8,1.4,23.4,4c2.9,1,5.7,2.2,8.3,3.7c4.2,2.5,4,3.5,0,6.1
		c-4,2.5-8.4,3.9-13,5.1C223,188,215.1,188.7,206.7,188.8z"/>
	<path fill="#FFFFFF" d="M246.9,187.6c0,4,0.1,7.8-0.1,11.6c0,0.8-0.7,1.7-1.3,2.2c-1.9,1.3-3.8,2.5-5.8,3.4
		c-5.4,2.4-11.1,3.7-16.9,4.5c-8.6,1.3-17.2,1.5-25.8,0.7c-8.2-0.8-16.3-2.3-23.9-5.8c-1.5-0.7-3-1.7-4.4-2.7
		c-1-0.7-1.4-1.6-1.4-2.9c0.1-3.2,0-6.4,0-9.6c0-0.4,0-0.8,0-1.2c2.6,1.1,5.1,2.3,7.6,3.3c6.3,2.3,12.8,3.5,19.4,4.3
		c7,0.8,14,0.9,21,0.4c9.6-0.7,19.1-2.3,28-6.3C244.5,188.9,245.6,188.2,246.9,187.6z"/>
	<path fill="#FFFFFF" d="M246.9,209.3c0,4,0.1,7.8-0.1,11.7c0,0.8-0.8,1.7-1.4,2.3c-2.5,2.1-5.4,3.3-8.5,4.4
		c-6.6,2.3-13.4,3.5-20.4,4.1c-6.5,0.6-12.9,0.6-19.4,0c-8.1-0.8-16.1-2.2-23.5-5.6c-1.8-0.8-3.4-2-5.1-3.1
		c-0.9-0.6-1.2-1.5-1.2-2.6c0.1-3.3,0-6.6,0-9.9c0-0.3,0-0.6,0-0.8c3.3,1.3,6.4,2.8,9.7,3.9c6.3,2.1,12.9,3.2,19.5,3.8
		c6.1,0.5,12.2,0.6,18.4,0.2c9.4-0.6,18.6-2.2,27.3-5.9c0.8-0.3,1.5-0.7,2.2-1.1C245.3,210.1,246,209.7,246.9,209.3z"/>
	<path fill="#FFFFFF" d="M167.4,230.9c5.9,3.4,12.2,5.2,18.6,6.5c9.1,1.8,18.3,2.3,27.6,1.8c8.1-0.4,16.2-1.6,23.9-4.2
		c3.2-1.1,6.2-2.5,9.4-3.8c0,1.8,0,3.8,0,5.8c0,1.6-0.1,3.2,0,4.7c0.1,1.4-0.4,2.4-1.5,3.1c-2.3,1.4-4.7,2.9-7.2,3.9
		c-6.2,2.5-12.7,3.7-19.3,4.4c-8.1,0.9-16.2,0.9-24.2-0.1c-8.1-0.9-15.9-2.6-23.2-6.4c-0.4-0.2-0.7-0.4-1.1-0.6
		c-2.2-1.2-3.4-2.9-3.2-5.6C167.6,237.4,167.4,234.2,167.4,230.9z"/>
</g>
<text transform="matrix(1 0 0 1 153.088 446.8066)" font-family="'MyriadPro-Regular'" font-size="15.4535">articles database</text>
<g>
	<path d="M254.1,379.7c0,10.6,0,21.2,0,31.8c0,2.4-0.8,4.5-2.4,6.3c-2.8,3.2-6.5,5.1-10.3,6.7c-6.9,2.8-14.1,4.2-21.4,5
		c-7,0.8-14,0.9-21,0.4c-10.1-0.7-19.9-2.4-29.1-6.8c-2.6-1.3-5.1-2.8-7.1-5c-1.8-1.9-2.7-4.1-2.7-6.8c0.1-21.2,0.1-42.3,0-63.5
		c0-2.7,0.9-4.8,2.7-6.7c2.4-2.6,5.5-4.4,8.7-5.8c6.6-2.9,13.6-4.5,20.8-5.4c7.6-1,15.3-1.2,23-0.7c10,0.7,19.9,2.3,29,6.7
		c2.9,1.4,5.5,3.1,7.6,5.5c1.5,1.8,2.3,3.8,2.3,6.2C254.1,358.4,254.1,369,254.1,379.7z M206.7,358c8.4-0.1,16.3-0.8,24.1-2.7
		c4.5-1.1,9-2.5,13-5.1c4-2.6,4.2-3.6,0-6.1c-2.6-1.5-5.4-2.7-8.3-3.7c-7.6-2.6-15.4-3.6-23.4-4c-10.2-0.4-20.4,0.3-30.3,3
		c-4.2,1.1-8.4,2.5-12,5.1c-3.2,2.2-3.3,3.1,0,5.3c2.4,1.5,5,2.7,7.7,3.7C187.1,356.9,197,357.8,206.7,358z M246.9,356.8
		c-1.3,0.6-2.4,1.3-3.5,1.8c-8.9,4-18.4,5.6-28,6.3c-7,0.5-14,0.4-21-0.4c-6.6-0.7-13.2-1.9-19.4-4.3c-2.6-1-5-2.1-7.6-3.3
		c0,0.4,0,0.8,0,1.2c0,3.2,0.1,6.4,0,9.6c0,1.3,0.4,2.2,1.4,2.9c1.4,1,2.9,2,4.4,2.7c7.5,3.6,15.6,5.1,23.9,5.8
		c8.6,0.8,17.2,0.6,25.8-0.7c5.8-0.9,11.5-2.1,16.9-4.5c2-0.9,4-2.1,5.8-3.4c0.7-0.4,1.3-1.4,1.3-2.2
		C247,364.6,246.9,360.8,246.9,356.8z M246.9,378.4c-0.9,0.5-1.6,0.9-2.4,1.2c-0.7,0.4-1.5,0.7-2.2,1.1c-8.7,3.7-17.9,5.2-27.3,5.9
		c-6.1,0.4-12.3,0.3-18.4-0.2c-6.6-0.6-13.2-1.6-19.5-3.8c-3.3-1.1-6.5-2.6-9.7-3.9c0,0.2,0,0.5,0,0.8c0,3.3,0,6.6,0,9.9
		c0,1.1,0.3,2,1.2,2.6c1.7,1.1,3.3,2.3,5.1,3.1c7.5,3.4,15.4,4.9,23.5,5.6c6.5,0.6,12.9,0.6,19.4,0c7-0.6,13.8-1.8,20.4-4.1
		c3-1.1,6-2.3,8.5-4.4c0.7-0.6,1.4-1.5,1.4-2.3C247,386.3,246.9,382.4,246.9,378.4z M167.4,400.1c0,3.3,0.2,6.5-0.1,9.5
		c-0.2,2.8,1,4.4,3.2,5.6c0.4,0.2,0.7,0.4,1.1,0.6c7.3,3.8,15.2,5.5,23.2,6.4c8.1,0.9,16.1,0.9,24.2,0.1c6.6-0.7,13.1-1.9,19.3-4.4
		c2.5-1,4.9-2.5,7.2-3.9c1.1-0.6,1.6-1.7,1.5-3.1c-0.1-1.6,0-3.2,0-4.7c0-2,0-4,0-5.8c-3.2,1.3-6.2,2.7-9.4,3.8
		c-7.7,2.6-15.8,3.7-23.9,4.2c-9.3,0.5-18.5,0-27.6-1.8C179.5,405.4,173.3,403.5,167.4,400.1z"/>
	<path fill="#FFFFFF" d="M206.7,358c-9.7-0.1-19.6-1.1-29.2-4.5c-2.7-1-5.3-2.2-7.7-3.7c-3.3-2.1-3.2-3.1,0-5.3
		c3.6-2.5,7.8-3.9,12-5.1c9.9-2.7,20.1-3.5,30.3-3c8,0.3,15.8,1.4,23.4,4c2.9,1,5.7,2.2,8.3,3.7c4.2,2.5,4,3.5,0,6.1
		c-4,2.5-8.4,3.9-13,5.1C223,357.2,215.1,357.9,206.7,358z"/>
	<path fill="#FFFFFF" d="M246.9,356.8c0,4,0.1,7.8-0.1,11.6c0,0.8-0.7,1.7-1.3,2.2c-1.9,1.3-3.8,2.5-5.8,3.4
		c-5.4,2.4-11.1,3.7-16.9,4.5c-8.6,1.3-17.2,1.5-25.8,0.7c-8.2-0.8-16.3-2.3-23.9-5.8c-1.5-0.7-3-1.7-4.4-2.7
		c-1-0.7-1.4-1.6-1.4-2.9c0.1-3.2,0-6.4,0-9.6c0-0.4,0-0.8,0-1.2c2.6,1.1,5.1,2.3,7.6,3.3c6.3,2.3,12.8,3.5,19.4,4.3
		c7,0.8,14,0.9,21,0.4c9.6-0.7,19.1-2.3,28-6.3C244.5,358,245.6,357.4,246.9,356.8z"/>
	<path fill="#FFFFFF" d="M246.9,378.4c0,4,0.1,7.8-0.1,11.7c0,0.8-0.8,1.7-1.4,2.3c-2.5,2.1-5.4,3.3-8.5,4.4
		c-6.6,2.3-13.4,3.5-20.4,4.1c-6.5,0.6-12.9,0.6-19.4,0c-8.1-0.8-16.1-2.2-23.5-5.6c-1.8-0.8-3.4-2-5.1-3.1
		c-0.9-0.6-1.2-1.5-1.2-2.6c0.1-3.3,0-6.6,0-9.9c0-0.3,0-0.6,0-0.8c3.3,1.3,6.4,2.8,9.7,3.9c6.3,2.1,12.9,3.2,19.5,3.8
		c6.1,0.5,12.2,0.6,18.4,0.2c9.4-0.6,18.6-2.2,27.3-5.9c0.8-0.3,1.5-0.7,2.2-1.1C245.3,379.3,246,378.9,246.9,378.4z"/>
	<path fill="#FFFFFF" d="M167.4,400.1c5.9,3.4,12.2,5.2,18.6,6.5c9.1,1.8,18.3,2.3,27.6,1.8c8.1-0.4,16.2-1.6,23.9-4.2
		c3.2-1.1,6.2-2.5,9.4-3.8c0,1.8,0,3.8,0,5.8c0,1.6-0.1,3.2,0,4.7c0.1,1.4-0.4,2.4-1.5,3.1c-2.3,1.4-4.7,2.9-7.2,3.9
		c-6.2,2.5-12.7,3.7-19.3,4.4c-8.1,0.9-16.2,0.9-24.2-0.1c-8.1-0.9-15.9-2.6-23.2-6.4c-0.4-0.2-0.7-0.4-1.1-0.6
		c-2.2-1.2-3.4-2.9-3.2-5.6C167.6,406.6,167.4,403.4,167.4,400.1z"/>
</g>
<text transform="matrix(1 0 0 1 83.2081 637.5043)" font-family="'MyriadPro-Regular'" font-size="15.4535">things we haven’t thought of database</text>
<g>
	<path d="M254.1,567.5c0,10.6,0,21.2,0,31.8c0,2.4-0.8,4.5-2.4,6.3c-2.8,3.2-6.5,5.1-10.3,6.7c-6.9,2.8-14.1,4.2-21.4,5
		c-7,0.8-14,0.9-21,0.4c-10.1-0.7-19.9-2.4-29.1-6.8c-2.6-1.3-5.1-2.8-7.1-5c-1.8-1.9-2.7-4.1-2.7-6.8c0.1-21.2,0.1-42.3,0-63.5
		c0-2.7,0.9-4.8,2.7-6.7c2.4-2.6,5.5-4.4,8.7-5.8c6.6-2.9,13.6-4.5,20.8-5.4c7.6-1,15.3-1.2,23-0.7c10,0.7,19.9,2.3,29,6.7
		c2.9,1.4,5.5,3.1,7.6,5.5c1.5,1.8,2.3,3.8,2.3,6.2C254.1,546.2,254.1,556.8,254.1,567.5z M206.7,545.7c8.4-0.1,16.3-0.8,24.1-2.7
		c4.5-1.1,9-2.5,13-5.1c4-2.6,4.2-3.6,0-6.1c-2.6-1.5-5.4-2.7-8.3-3.7c-7.6-2.6-15.4-3.6-23.4-4c-10.2-0.4-20.4,0.3-30.3,3
		c-4.2,1.1-8.4,2.5-12,5.1c-3.2,2.2-3.3,3.1,0,5.3c2.4,1.5,5,2.7,7.7,3.7C187.1,544.6,197,545.6,206.7,545.7z M246.9,544.6
		c-1.3,0.6-2.4,1.3-3.5,1.8c-8.9,4-18.4,5.6-28,6.3c-7,0.5-14,0.4-21-0.4c-6.6-0.7-13.2-1.9-19.4-4.3c-2.6-1-5-2.1-7.6-3.3
		c0,0.4,0,0.8,0,1.2c0,3.2,0.1,6.4,0,9.6c0,1.3,0.4,2.2,1.4,2.9c1.4,1,2.9,2,4.4,2.7c7.5,3.6,15.6,5.1,23.9,5.8
		c8.6,0.8,17.2,0.6,25.8-0.7c5.8-0.9,11.5-2.1,16.9-4.5c2-0.9,4-2.1,5.8-3.4c0.7-0.4,1.3-1.4,1.3-2.2
		C247,552.4,246.9,548.5,246.9,544.6z M246.9,566.2c-0.9,0.5-1.6,0.9-2.4,1.2c-0.7,0.4-1.5,0.7-2.2,1.1c-8.7,3.7-17.9,5.2-27.3,5.9
		c-6.1,0.4-12.3,0.3-18.4-0.2c-6.6-0.6-13.2-1.6-19.5-3.8c-3.3-1.1-6.5-2.6-9.7-3.9c0,0.2,0,0.5,0,0.8c0,3.3,0,6.6,0,9.9
		c0,1.1,0.3,2,1.2,2.6c1.7,1.1,3.3,2.3,5.1,3.1c7.5,3.4,15.4,4.9,23.5,5.6c6.5,0.6,12.9,0.6,19.4,0c7-0.6,13.8-1.8,20.4-4.1
		c3-1.1,6-2.3,8.5-4.4c0.7-0.6,1.4-1.5,1.4-2.3C247,574.1,246.9,570.2,246.9,566.2z M167.4,587.9c0,3.3,0.2,6.5-0.1,9.5
		c-0.2,2.8,1,4.4,3.2,5.6c0.4,0.2,0.7,0.4,1.1,0.6c7.3,3.8,15.2,5.5,23.2,6.4c8.1,0.9,16.1,0.9,24.2,0.1c6.6-0.7,13.1-1.9,19.3-4.4
		c2.5-1,4.9-2.5,7.2-3.9c1.1-0.6,1.6-1.7,1.5-3.1c-0.1-1.6,0-3.2,0-4.7c0-2,0-4,0-5.8c-3.2,1.3-6.2,2.7-9.4,3.8
		c-7.7,2.6-15.8,3.7-23.9,4.2c-9.3,0.5-18.5,0-27.6-1.8C179.5,593.1,173.3,591.3,167.4,587.9z"/>
	<path fill="#FFFFFF" d="M206.7,545.7c-9.7-0.1-19.6-1.1-29.2-4.5c-2.7-1-5.3-2.2-7.7-3.7c-3.3-2.1-3.2-3.1,0-5.3
		c3.6-2.5,7.8-3.9,12-5.1c9.9-2.7,20.1-3.5,30.3-3c8,0.3,15.8,1.4,23.4,4c2.9,1,5.7,2.2,8.3,3.7c4.2,2.5,4,3.5,0,6.1
		c-4,2.5-8.4,3.9-13,5.1C223,545,215.1,545.7,206.7,545.7z"/>
	<path fill="#FFFFFF" d="M246.9,544.6c0,4,0.1,7.8-0.1,11.6c0,0.8-0.7,1.7-1.3,2.2c-1.9,1.3-3.8,2.5-5.8,3.4
		c-5.4,2.4-11.1,3.7-16.9,4.5c-8.6,1.3-17.2,1.5-25.8,0.7c-8.2-0.8-16.3-2.3-23.9-5.8c-1.5-0.7-3-1.7-4.4-2.7
		c-1-0.7-1.4-1.6-1.4-2.9c0.1-3.2,0-6.4,0-9.6c0-0.4,0-0.8,0-1.2c2.6,1.1,5.1,2.3,7.6,3.3c6.3,2.3,12.8,3.5,19.4,4.3
		c7,0.8,14,0.9,21,0.4c9.6-0.7,19.1-2.3,28-6.3C244.5,545.8,245.6,545.2,246.9,544.6z"/>
	<path fill="#FFFFFF" d="M246.9,566.2c0,4,0.1,7.8-0.1,11.7c0,0.8-0.8,1.7-1.4,2.3c-2.5,2.1-5.4,3.3-8.5,4.4
		c-6.6,2.3-13.4,3.5-20.4,4.1c-6.5,0.6-12.9,0.6-19.4,0c-8.1-0.8-16.1-2.2-23.5-5.6c-1.8-0.8-3.4-2-5.1-3.1
		c-0.9-0.6-1.2-1.5-1.2-2.6c0.1-3.3,0-6.6,0-9.9c0-0.3,0-0.6,0-0.8c3.3,1.3,6.4,2.8,9.7,3.9c6.3,2.1,12.9,3.2,19.5,3.8
		c6.1,0.5,12.2,0.6,18.4,0.2c9.4-0.6,18.6-2.2,27.3-5.9c0.8-0.3,1.5-0.7,2.2-1.1C245.3,567.1,246,566.7,246.9,566.2z"/>
	<path fill="#FFFFFF" d="M167.4,587.9c5.9,3.4,12.2,5.2,18.6,6.5c9.1,1.8,18.3,2.3,27.6,1.8c8.1-0.4,16.2-1.6,23.9-4.2
		c3.2-1.1,6.2-2.5,9.4-3.8c0,1.8,0,3.8,0,5.8c0,1.6-0.1,3.2,0,4.7c0.1,1.4-0.4,2.4-1.5,3.1c-2.3,1.4-4.7,2.9-7.2,3.9
		c-6.2,2.5-12.7,3.7-19.3,4.4c-8.1,0.9-16.2,0.9-24.2-0.1c-8.1-0.9-15.9-2.6-23.2-6.4c-0.4-0.2-0.7-0.4-1.1-0.6
		c-2.2-1.2-3.4-2.9-3.2-5.6C167.6,594.3,167.4,591.2,167.4,587.9z"/>
</g>
<line fill="none" stroke="#000000" stroke-width="4" stroke-miterlimit="10" x1="572.4" y1="279.2" x2="625.3" y2="332.1"/>
<line fill="none" stroke="#000000" stroke-width="4" stroke-miterlimit="10" x1="572.4" y1="535.6" x2="625.3" y2="482.7"/>
<line fill="none" stroke="#000000" stroke-width="4" stroke-miterlimit="10" x1="558" y1="392.8" x2="632.8" y2="392.8"/>
<line fill="none" stroke="#000000" stroke-width="4" stroke-miterlimit="10" x1="274.5" y1="392.8" x2="457.1" y2="392.8"/>
<line fill="none" stroke="#000000" stroke-width="4" stroke-miterlimit="10" x1="274.5" y1="582.4" x2="457.1" y2="582.4"/>
<line fill="none" stroke="#000000" stroke-width="4" stroke-miterlimit="10" x1="274.5" y1="223.7" x2="457.1" y2="223.7"/>
</svg>
