<?xml version="1.0" encoding="utf-8"?>
<!-- Generator: Adobe Illustrator 18.0.0, SVG Export Plug-In . SVG Version: 6.00 Build 0)  -->
<!DOCTYPE svg PUBLIC "-//W3C//DTD SVG 1.1//EN" "http://www.w3.org/Graphics/SVG/1.1/DTD/svg11.dtd">
<svg version="1.1" id="Layer_1" xmlns="http://www.w3.org/2000/svg" xmlns:xlink="http://www.w3.org/1999/xlink" x="0px" y="0px"
	 viewBox="0 0 500 500" enable-background="new 0 0 500 500" xml:space="preserve">
<g>
	<path d="M150,343.6c0-3.9,0-7.2,0-11c2.8-1.3,6-2.2,8.6-4.1c5.7-4.2,5.4-11.7,0.5-17.8c-1.8-2.2-3.1-6.4-2.2-8.7
		c1-2.5,4.6-4.9,7.4-5.4c8.1-1.6,14.3-8.5,10.5-14.6c-5.1-8.3-0.7-12,5.1-14c5.2-0.9,11.6-0.3,15.1-3.2c3.3-2.7,3.4-9.2,5-14
		c-0.7-0.4-1.5-0.8-2.2-1.2c3.4-2,6.7-4,10-5.9c13,9.9,15.8,8.8,23.7-6.4c1.5-2.9,7.6-3.3,11.3-4.8c9.9,14.7,17.5,14.6,25.9,1.1
		c6.8-0.4,11.5,0.3,13.6,9c2.4,9.5,12.2,9.5,21.1,1.2c6.9,2.1,11.1,5.1,10.3,14c-0.9,9.3,8.2,12.6,19.5,7.6c2.4,2.7,5,5.6,7.7,8.6
		c-1.3,3.2-3.1,6.1-3.6,9.3c-1,6.7,2.1,12.9,8.6,12.7c9.5-0.3,10,5.6,11.6,11.7c-11.4,9.3-11,16.5,1.2,23.6c4.4,2.6,5,10.8,1,13.7
		c-13.4,9.7-13.7,13.5-2,24.3c-1.3,3.4-2.6,7.1-4,10.7c-0.4-0.6-0.8-1.2-1.2-1.7c-4.6,2.2-11.3,3.3-13.2,6.9
		c-2.3,4.4-0.5,11,0.4,16.6c-2.4,5.5-5.5,9.6-14,7.1c-8.9-2.6-13.2,4.6-11.8,18.3c-3,1.8-6.1,3.7-9.2,5.5
		c-14.1-9.9-21.6-7.2-24.4,8.7c-3.7,0.8-7.5,1.6-11.4,2.4c0.3-0.6,0.6-1.2,0.9-1.9c-4.5-3-8.9-8.2-13.4-8.3
		c-4.5-0.1-9.1,4.9-13.7,7.7c0.3,0.8,0.7,1.6,1,2.4c-3.9-0.7-7.7-1.3-11.5-2c-4-16.5-11.1-19.2-24.2-8.8c-3.2-1.9-6.6-3.8-9.8-5.7
		c3-14.9-2.1-19.7-16.2-17.8c-3.4,0.5-7.4-3.8-11.1-5.9c8.2-16.3,3.8-24-11.9-23.7c-3.7-5.8-5.5-10.3,1.3-16.3
		C167.3,356.8,162.6,348.6,150,343.6z M284.1,338.2c0.1-15.4-12.3-28-27.7-28.2c-15.2-0.2-28.1,12.5-28.1,27.8
		c0,15.6,12.3,28.1,27.7,28.3C271.1,366.2,284,353.5,284.1,338.2z"/>
	<path d="M487.8,253.3c-14.1,9.2-14,16.1-0.1,25.8c-1.2,4.3-2.4,8.6-3.7,13c-0.4-0.6-0.8-1.2-1.2-1.8c-4.4,2-10.9,3-12.5,6.4
		c-2.2,4.5-0.5,10.9-0.5,16.5c0.8,0.3,1.5,0.5,2.3,0.8c-3.1,2.9-6.1,5.9-9,8.6c-15.6-6.8-18.1-5.1-23,9.9c-1.1,3.4-7.6,5.1-11.5,7.5
		c-9.9-14.8-17.4-14.8-26.4-1.2c-6.4-1.4-13.5-0.6-13.6-11.4c-0.1-8.5-10.1-10.4-21.8-4c-2.6-3.1-5.5-6.5-8.4-9.9
		c7.5-14.4,3-22.2-12.3-21.6c-3.1-6.7-6-12.6,3-18.3c5.3-3.4,5.3-11.6-0.3-15.1c-8.9-5.5-5.5-11.2-3.1-17.7
		c15.7-0.2,20.3-8.1,12.1-22.6c2.9-2.6,6.1-5.4,9.6-8.6c2.7,1.3,5.8,4.1,7.9,3.5c4.7-1.5,12.7-4.6,12.7-7.1
		c-0.1-10.8,6.8-11.4,14.2-12.4c8.8,13.5,17.5,13.7,25,0c7.2,0.8,13.5,1.1,14.2,11.7c0.5,8.3,9.9,9.9,21.8,4c2.5,2.9,5.3,6.1,8,9.3
		c-6.6,15.2-2.4,22.8,12.9,21.6C485.2,244.2,486.4,248.5,487.8,253.3z M434.9,266.1c0-11-8.5-19.7-19.6-19.9
		c-11.4-0.2-20.8,8.7-20.8,19.8c0,10.6,9.1,19.8,19.8,20.1C425.5,286.5,434.9,277.4,434.9,266.1z"/>
	<path d="M375.1,157.1c0.9,2.8,2.3,5.5,2.6,8.4c0.2,2.1-0.1,5.3-1.5,6.5c-9.8,8.9-9.2,15.4,3.1,23.1c-1.6,4.1-3.2,8.2-4.7,12.3
		c-16.5-1.6-21.5,3.3-18.6,18c-6,3.5-11,8.7-17.8-0.6c-5-6.9-12.3-4.3-20.5,6.3c-3.9-1.5-8-3.1-11.9-4.7c1.6-16.7-3.3-21.8-18-18.2
		c-1.9-4.1-3.9-8.3-5.8-12.5c13.4-9.4,13.4-16.5,0.1-25.8c1.7-4,3.4-8.1,5.1-12.1c16.6,1.9,20.6-2,18.4-18.3c3.9-1.7,8-3.5,11.9-5.3
		c10.3,13.2,16.7,13.3,26.2,0c3.9,1.7,8,3.4,11.9,5.1c-2,16.7,2.5,20.6,19.7,18L375.1,157.1z M330.3,163.8
		c-10.9,0.1-19,8.5-18.7,19.4c0.2,10.1,8.9,18.6,18.9,18.7c10.2,0,19.5-9.2,19.4-19.3C349.9,172.2,341,163.7,330.3,163.8z"/>
	<path d="M375.2,157.2c-2.7-1.1-5.3-2.3-8.3-3.6c0-4.7,0-9.5,0-14.3c16.2-3.4,18.9-8,13-22.5c1.6-1.2,3.1-2.7,4.9-3.8
		c2.6-1.5,5.4-2.8,8.1-4.1c11.7,12.4,16.6,12.4,26.2-0.4c4.5,2.6,9.2,5.3,13.7,7.9c-6.4,14.8-3.3,20.3,12.5,22.4c0,5,0,10.1,0,15.1
		c-16.1,3.5-18.7,8.2-12.7,23.1c-4.3,2.5-8.7,5.1-12.9,7.5c-11.9-12.4-16.6-12.5-26.4,0.2c-4.4-2.5-9-5.1-13.4-7.6
		c4.9-13.3,4-16.6-4.8-20C375.1,157.1,375.2,157.2,375.2,157.2z M404.8,158.3c7.3,0.2,13.2-5,13.1-11.2c-0.1-7.1-4.3-11.3-11.1-12.2
		c-6.2-0.9-12.7,5.3-12.4,11.7C394.8,153.7,399.1,157.4,404.8,158.3z"/>
	<path fill="#FFFFFF" d="M284.1,338.2c-0.1,15.3-12.9,28-28.1,27.8c-15.4-0.1-27.7-12.7-27.7-28.3c0-15.3,12.9-28.1,28.1-27.8
		C271.8,310.2,284.2,322.8,284.1,338.2z"/>
	<path fill="#FFFFFF" d="M434.9,266.1c0,11.2-9.4,20.4-20.6,20.1c-10.7-0.3-19.8-9.6-19.8-20.1c0-11.1,9.4-20,20.8-19.8
		C426.4,246.4,435,255.1,434.9,266.1z"/>
	<path fill="#FFFFFF" d="M330.3,163.8c10.6-0.1,19.5,8.4,19.6,18.8c0.1,10.1-9.2,19.3-19.4,19.3c-10,0-18.7-8.6-18.9-18.7
		C311.4,172.3,319.5,163.9,330.3,163.8z"/>
	<path fill="#FFFFFF" d="M404.8,158.3c-5.8-0.9-10-4.6-10.3-11.7c-0.3-6.4,6.2-12.6,12.4-11.7c6.8,1,11,5.2,11.1,12.2
		C418.1,153.3,412.2,158.5,404.8,158.3z"/>
</g>
<g>
	<path d="M243.7,452.7h-216c-5.5,0-10-4.5-10-10V61c0-5.5,4.5-10,10-10h216c5.5,0,10,4.5,10,10v381.7
		C253.7,448.2,249.2,452.7,243.7,452.7z"/>
	<path fill="#FFFFFF" d="M228.5,110.6H42.8c-1.8,0-3.2-1.4-3.2-3.2V96.7c0-1.8,1.4-3.2,3.2-3.2h185.7c1.8,0,3.2,1.4,3.2,3.2v10.7
		C231.7,109.2,230.3,110.6,228.5,110.6z"/>
	<path fill="#FFFFFF" d="M228.5,147.7H42.8c-1.8,0-3.2-1.4-3.2-3.2v-10.7c0-1.8,1.4-3.2,3.2-3.2h185.7c1.8,0,3.2,1.4,3.2,3.2v10.7
		C231.7,146.3,230.3,147.7,228.5,147.7z"/>
	<path fill="#FFFFFF" d="M228.5,184.8H42.8c-1.8,0-3.2-1.4-3.2-3.2v-10.7c0-1.8,1.4-3.2,3.2-3.2h185.7c1.8,0,3.2,1.4,3.2,3.2v10.7
		C231.7,183.4,230.3,184.8,228.5,184.8z"/>
	<path fill="#FFFFFF" d="M228.5,221.8H42.8c-1.8,0-3.2-1.4-3.2-3.2v-10.7c0-1.8,1.4-3.2,3.2-3.2h185.7c1.8,0,3.2,1.4,3.2,3.2v10.7
		C231.7,220.4,230.3,221.8,228.5,221.8z"/>
	<path fill="#FFFFFF" d="M228.5,258.9H42.8c-1.8,0-3.2-1.4-3.2-3.2V245c0-1.8,1.4-3.2,3.2-3.2h185.7c1.8,0,3.2,1.4,3.2,3.2v10.7
		C231.7,257.5,230.3,258.9,228.5,258.9z"/>
	<path fill="#FFFFFF" d="M228.5,296H42.8c-1.8,0-3.2-1.4-3.2-3.2v-10.7c0-1.8,1.4-3.2,3.2-3.2h185.7c1.8,0,3.2,1.4,3.2,3.2v10.7
		C231.7,294.5,230.3,296,228.5,296z"/>
	<path fill="#FFFFFF" d="M228.5,333H42.8c-1.8,0-3.2-1.4-3.2-3.2v-10.7c0-1.8,1.4-3.2,3.2-3.2h185.7c1.8,0,3.2,1.4,3.2,3.2v10.7
		C231.7,331.6,230.3,333,228.5,333z"/>
	<path fill="#FFFFFF" d="M228.2,421.6h-10.7c-1.8,0-3.2-1.4-3.2-3.2v-10.7c0-1.8,1.4-3.2,3.2-3.2h10.7c1.8,0,3.2,1.4,3.2,3.2v10.7
		C231.4,420.2,230,421.6,228.2,421.6z"/>
	<path fill="#FFFFFF" d="M202.2,421.6h-10.7c-1.8,0-3.2-1.4-3.2-3.2v-10.7c0-1.8,1.4-3.2,3.2-3.2h10.7c1.8,0,3.2,1.4,3.2,3.2v10.7
		C205.4,420.2,204,421.6,202.2,421.6z"/>
</g>
</svg>
