<?xml version="1.0" encoding="utf-8"?>
<!-- Generator: Adobe Illustrator 18.0.0, SVG Export Plug-In . SVG Version: 6.00 Build 0)  -->
<!DOCTYPE svg PUBLIC "-//W3C//DTD SVG 1.1//EN" "http://www.w3.org/Graphics/SVG/1.1/DTD/svg11.dtd">
<svg version="1.1" id="Layer_1" xmlns="http://www.w3.org/2000/svg" xmlns:xlink="http://www.w3.org/1999/xlink" x="0px" y="0px"
	 viewBox="0 0 792 612" enable-background="new 0 0 792 612" xml:space="preserve">
<image overflow="visible" width="2000" height="1197" xlink:href="../../../Desktop/2000px-Amazon_Web_Services_Logo.svg.png"  transform="matrix(5.283308e-02 0 0 5.283308e-02 454.3392 303.8872)">
</image>
<g id="SZH0Ex.tif">
	
		<image overflow="visible" width="206" height="174" id="Layer_0_1_" xlink:href="DC324566DB65E288.png"  transform="matrix(0.5 0 0 0.5 77.337 63.602)">
	</image>
</g>
<g id="trAx8x.tif">
	
		<image overflow="visible" width="142" height="124" id="Layer_0_2_" xlink:href="DC324566DB65E28F.png"  transform="matrix(0.6619 0 0 0.6619 284.2868 211.1076)">
	</image>
</g>
<g id="eZ2e8v.tif">
	
		<image overflow="visible" width="678" height="436" id="Layer_0_3_" xlink:href="DC324566DB65E289.png"  transform="matrix(0.2342 0 0 0.2342 413.5993 103.2842)">
	</image>
</g>
<image overflow="visible" width="225" height="225" xlink:href="../../../Desktop/download.png"  transform="matrix(0.5377 0 0 0.5377 270.4361 424.704)">
</image>
<image overflow="visible" width="225" height="225" xlink:href="../../../Desktop/download.png"  transform="matrix(0.5377 0 0 0.5377 68.3409 424.704)">
</image>
<text transform="matrix(1 0 0 1 25.7105 568.9927)" font-family="'MyriadPro-Regular'" font-size="16">booster-read-projects-function</text>
<text transform="matrix(1 0 0 1 297.4127 571.0298)" font-family="'MyriadPro-Regular'" font-size="16">spaceport</text>
<text transform="matrix(1 0 0 1 682.4452 327.0961)" font-family="'MyriadPro-Regular'" font-size="16">users</text>
<text transform="matrix(1 0 0 1 303.0561 304.3487)" font-family="'MyriadPro-Regular'" font-size="16">s3 bucket</text>
<text transform="matrix(1 0 0 1 254.7202 176.7803)" font-family="'MyriadPro-Regular'" font-size="16">API Gateway</text>
<text transform="matrix(1 0 0 1 80.7977 173.131)" font-family="'MyriadPro-Regular'" font-size="16">lambda function</text>
<g>
	<g>
		<line fill="none" stroke="#000000" stroke-width="2" stroke-miterlimit="10" x1="134.8" y1="418.9" x2="134.8" y2="201.2"/>
		<g>
			<polygon points="144.8,204.1 134.8,186.9 124.9,204.1 			"/>
		</g>
	</g>
</g>
<g>
	<g>
		<line fill="none" stroke="#000000" stroke-width="2" stroke-miterlimit="10" x1="180.8" y1="120.2" x2="221.5" y2="121"/>
		<g>
			<polygon points="218.4,130.9 235.8,121.2 218.8,110.9 			"/>
		</g>
	</g>
</g>
<g>
	<g>
		<line fill="none" stroke="#000000" stroke-width="2" stroke-miterlimit="10" x1="353" y1="121.1" x2="392.8" y2="129.8"/>
		<g>
			<polygon points="387.8,138.9 406.8,132.9 392,119.4 			"/>
		</g>
	</g>
</g>
<g>
	<g>
		<line fill="none" stroke="#000000" stroke-width="2" stroke-miterlimit="10" x1="371.2" y1="209.7" x2="391.1" y2="194.6"/>
		<g>
			<polygon points="394.8,204.3 402.5,185.9 382.7,188.5 			"/>
		</g>
	</g>
</g>
<g>
	<g>
		<line fill="none" stroke="#000000" stroke-width="2" stroke-miterlimit="10" x1="330.9" y1="429.4" x2="330.9" y2="325.8"/>
		<g>
			<polygon points="340.9,328.7 330.9,311.4 321,328.7 			"/>
		</g>
	</g>
</g>
<g>
	<g>
		<line fill="none" stroke="#000000" stroke-width="2" stroke-miterlimit="10" x1="568.4" y1="157.1" x2="635.7" y2="158.6"/>
		<g>
			<polygon points="632.5,168.5 650,158.9 633,148.6 			"/>
		</g>
	</g>
</g>
<g>
	<g>
		<line fill="none" stroke="#000000" stroke-width="2" stroke-miterlimit="10" x1="561.9" y1="130" x2="641.5" y2="89.2"/>
		<g>
			<polygon points="643.4,99.4 654.3,82.6 634.3,81.6 			"/>
		</g>
	</g>
</g>
<g>
	<g>
		<line fill="none" stroke="#000000" stroke-width="2" stroke-miterlimit="10" x1="569.8" y1="181.3" x2="656.1" y2="233.1"/>
		<g>
			<polygon points="648.5,240.2 668.4,240.5 658.7,223.1 			"/>
		</g>
	</g>
</g>
<image overflow="visible" width="2000" height="2000" xlink:href="../../../Desktop/User_font_awesome.svg.png"  transform="matrix(4.367183e-02 0 0 4.367183e-02 656.1407 106.9205)">
</image>
<image overflow="visible" width="2000" height="2000" xlink:href="../../../Desktop/User_font_awesome.svg.png"  transform="matrix(4.367183e-02 0 0 4.367183e-02 656.1407 209.8179)">
</image>
<image overflow="visible" width="2000" height="2000" xlink:href="../../../Desktop/User_font_awesome.svg.png"  transform="matrix(4.367183e-02 0 0 4.367183e-02 656.1407 15.831)">
</image>
<g id="yodeMW.tif">
	
		<image overflow="visible" width="822" height="840" id="Layer_0_4_" xlink:href="D34407DDB5B9BDF7.png"  transform="matrix(0.1334 0 0 0.1334 241.7394 47.8727)">
	</image>
</g>
<g>
	<g>
		<polyline fill="none" stroke="#000000" stroke-width="2" stroke-miterlimit="10" points="581.8,374.1 581.8,380.1 575.8,380.1 		
			"/>
		
			<line fill="none" stroke="#000000" stroke-width="2" stroke-miterlimit="10" stroke-dasharray="12.0387,12.0387" x1="563.7" y1="380.1" x2="40" y2="380.1"/>
		<polyline fill="none" stroke="#000000" stroke-width="2" stroke-miterlimit="10" points="34,380.1 28,380.1 28,374.1 		"/>
		
			<line fill="none" stroke="#000000" stroke-width="2" stroke-miterlimit="10" stroke-dasharray="11.6741,11.6741" x1="28" y1="362.4" x2="28" y2="41.4"/>
		<polyline fill="none" stroke="#000000" stroke-width="2" stroke-miterlimit="10" points="28,35.5 28,29.5 34,29.5 		"/>
		
			<line fill="none" stroke="#000000" stroke-width="2" stroke-miterlimit="10" stroke-dasharray="12.0387,12.0387" x1="46.1" y1="29.5" x2="569.7" y2="29.5"/>
		<polyline fill="none" stroke="#000000" stroke-width="2" stroke-miterlimit="10" points="575.8,29.5 581.8,29.5 581.8,35.5 		"/>
		
			<line fill="none" stroke="#000000" stroke-width="2" stroke-miterlimit="10" stroke-dasharray="11.6741,11.6741" x1="581.8" y1="47.2" x2="581.8" y2="368.2"/>
	</g>
</g>
<text transform="matrix(1 0 0 1 141.149 415.9959)" font-family="'MyriadPro-Regular'" font-size="12">yarn deploy</text>
<text transform="matrix(1 0 0 1 336.202 415.9959)" font-family="'MyriadPro-Regular'" font-size="12">yarn deploy</text>
</svg>
